<svg width="59" height="53" viewBox="0 0 59 53" fill="none" xmlns="http://www.w3.org/2000/svg">
<path d="M29.5 36.4776C35.7591 36.4776 40.8333 32.0034 40.8333 26.4844C40.8333 20.9653 35.7591 16.4912 29.5 16.4912C23.2408 16.4912 18.1667 20.9653 18.1667 26.4844C18.1667 32.0034 23.2408 36.4776 29.5 36.4776Z" stroke="black" stroke-width="6.16412" stroke-linecap="round" stroke-linejoin="round"/>
<path d="M4 36.4779V16.4915C4 9.59265 10.3426 4 18.1667 4H40.8333C48.6573 4 55 9.59265 55 16.4915V36.4779C55 43.3767 48.6573 48.9694 40.8333 48.9694H18.1667C10.3426 48.9694 4 43.3767 4 36.4779Z" stroke="black" stroke-width="6.16412"/>
<path d="M45.0833 12.7685L45.1117 12.7407" stroke="black" stroke-width="6.16412" stroke-linecap="round" stroke-linejoin="round"/>
</svg>
